<svg id="visual" viewBox="0 0 900 300" xmlns="http://www.w3.org/2000/svg" xmlns:xlink="http://www.w3.org/1999/xlink" version="1.1">
    <path d="M0 199L129 199L129 187L257 187L257 196L386 196L386 236L514 236L514 193L643 193L643 201L771 201L771 203L900 203L900 201L900 0L900 0L771 0L771 0L643 0L643 0L514 0L514 0L386 0L386 0L257 0L257 0L129 0L129 0L0 0Z" fill="#9900ff">
    </path>
    <path d="M0 135L129 135L129 142L257 142L257 175L386 175L386 166L514 166L514 153L643 153L643 137L771 137L771 122L900 122L900 124L900 0L900 0L771 0L771 0L643 0L643 0L514 0L514 0L386 0L386 0L257 0L257 0L129 0L129 0L0 0Z" fill="#7700c6">
    </path>
    <path d="M0 77L129 77L129 64L257 64L257 88L386 88L386 52L514 52L514 95L643 95L643 90L771 90L771 87L900 87L900 58L900 0L900 0L771 0L771 0L643 0L643 0L514 0L514 0L386 0L386 0L257 0L257 0L129 0L129 0L0 0Z" fill="#560090">
    </path>
</svg>